<svg version="1.1" viewBox="0.0 0.0 965.0341207349081 698.0498687664042" fill="none" stroke="none" stroke-linecap="square" stroke-miterlimit="10" xmlns:xlink="http://www.w3.org/1999/xlink" xmlns="http://www.w3.org/2000/svg"><clipPath id="p.0"><path d="m0 0l965.0341 0l0 698.04987l-965.0341 0l0 -698.04987z" clip-rule="nonzero"/></clipPath><g clip-path="url(#p.0)"><path fill="#000000" d="m0 0l965.0341 0l0 698.04987l-965.0341 0z" fill-rule="evenodd"/><path fill="#000000" fill-opacity="0.0" d="m326.3937 27.102362l307.21262 0l0 665.7953l-307.21262 0z" fill-rule="evenodd"/><path fill="#ffff00" d="m462.3312 556.6336q-60.265625 0 -88.53125 -30.390625q-28.265625 -30.40625 -28.265625 -100.8125q0 -56.0 18.921875 -120.53125q18.9375 -64.53125 60.796875 -110.65625q41.875 -46.140625 106.40622 -46.140625q40.0 0 64.53125 17.609375q24.53125 17.59375 24.53125 53.859375q0 22.9375 -9.0625 36.0q-9.0625 13.0625 -28.265625 13.0625q-19.203125 0 -30.40625 -13.859375q9.609375 -4.796875 17.0625 -19.203125q7.46875 -14.40625 7.46875 -29.859375q0 -14.40625 -7.734375 -23.46875q-7.71875 -9.0625 -24.796875 -9.0625q-28.265625 0 -53.87497 38.671875q-25.59375 38.65625 -41.328125 97.328125q-15.71875 58.65625 -15.71875 113.0625q0 40.53125 13.859375 61.859375q13.875 21.328125 50.140625 21.328125q31.453094 0 58.12497 -13.859375q26.671875 -13.875 45.859375 -39.46875l12.28125 5.328125q-13.34375 33.609375 -39.484375 56.015625q-26.125 22.390625 -56.0 32.796875q-29.859344 10.390625 -56.515594 10.390625z" fill-rule="nonzero"/></g></svg>